<?xml version="1.0" encoding="UTF-8" standalone="no"?>
<!-- Created with Inkscape (http://www.inkscape.org/) -->

<svg
   xmlns:dc="http://purl.org/dc/elements/1.1/"
   xmlns:cc="http://creativecommons.org/ns#"
   xmlns:rdf="http://www.w3.org/1999/02/22-rdf-syntax-ns#"
   xmlns:svg="http://www.w3.org/2000/svg"
   xmlns="http://www.w3.org/2000/svg"
   xmlns:xlink="http://www.w3.org/1999/xlink"
   xmlns:sodipodi="http://sodipodi.sourceforge.net/DTD/sodipodi-0.dtd"
   xmlns:inkscape="http://www.inkscape.org/namespaces/inkscape"
   width="210mm"
   height="297mm"
   viewBox="0 0 744.09448819 1052.3622047"
   id="svg2"
   version="1.1"
   inkscape:version="0.91 r13725"
   sodipodi:docname="quartiere.svg">
  <g
     inkscape:groupmode="layer"
     id="layer2"
     inkscape:label="vie"
     style="display:none">
    <path
       style="fill:none;fill-rule:evenodd;stroke:#ff0000;stroke-width:1px;stroke-linecap:butt;stroke-linejoin:miter;stroke-opacity:1"
       d="m 189,179.36221 c 0,0 43,-6 69,28 26,34 44,37 75,55 31,18 74,89 58,133 -16,44 -12,74 -12,74 0,0 -8,28 72,82 80,54 74.125,106.125 74.125,106.125"
       id="path4267"
       inkscape:connector-curvature="0"
       sodipodi:nodetypes="cssscsc" />
    <path
       style="fill:none;fill-rule:evenodd;stroke:#ff0000;stroke-width:1px;stroke-linecap:butt;stroke-linejoin:miter;stroke-opacity:1"
       d="m 480.99138,746.52516 c 0,0 -131.99138,-75.16295 -142.99138,-98.16295 -11,-23 -11,-28 -42,-57 -31,-29 -53,-88 -68,-93 -15,-5 -43,-17 -92,-13 -49,4 14,-86 14,-86 L 259.9375,210.20596"
       id="path4269"
       inkscape:connector-curvature="0"
       sodipodi:nodetypes="csssscc" />
    <path
       style="fill:none;fill-rule:evenodd;stroke:#ff0000;stroke-width:1px;stroke-linecap:butt;stroke-linejoin:miter;stroke-opacity:1"
       d="M 212,493.11221 337.64349,265.52914"
       id="path4271"
       inkscape:connector-curvature="0" />
    <path
       style="fill:none;fill-rule:evenodd;stroke:#ff0000;stroke-width:1px;stroke-linecap:butt;stroke-linejoin:miter;stroke-opacity:1"
       d="M 268,555.86221 378.65568,458.74606"
       id="path4273"
       inkscape:connector-curvature="0" />
    <path
       style="fill:none;fill-rule:evenodd;stroke:#ff0000;stroke-width:1px;stroke-linecap:butt;stroke-linejoin:miter;stroke-opacity:1"
       d="m 391.3836,350.55873 c 0,0 39.1164,-31.19652 38.1164,-34.19652 -1,-3 29,-67 26.5,-36 -2.5,31 3,33.5 3,33.5 0,0 54,4.5 69,17 15,12.5 -11.5,52 -11.5,52 0,0 -42.5,61 -39.5,63 3,2 101.98097,33.85445 125.48097,54.35445"
       id="path4277"
       inkscape:connector-curvature="0"
       sodipodi:nodetypes="csscscsc" />
    <path
       style="fill:none;fill-rule:evenodd;stroke:#ff0000;stroke-width:1px;stroke-linecap:butt;stroke-linejoin:miter;stroke-opacity:1"
       d="m 476.76675,445.5762 -35.88567,98.02268"
       id="path4279"
       inkscape:connector-curvature="0" />
    <path
       style="fill:none;fill-rule:evenodd;stroke:#ff0000;stroke-width:1px;stroke-linecap:butt;stroke-linejoin:miter;stroke-opacity:1"
       d="m 337.5,647.86221 c 0,0 74.25,-45.75 103.5,-104.25"
       id="path4283"
       inkscape:connector-curvature="0" />
    <path
       style="fill:none;fill-rule:evenodd;stroke:#ff0000;stroke-width:1px;stroke-linecap:butt;stroke-linejoin:miter;stroke-opacity:1"
       d="m 418.75,327.48721 c 0,0 6.25,-12.625 7.25,-20.625 1,-8 3.5,-40 20,-56.5 16.5,-16.5 90.5,-80.5 96,-84.5 5.5,-4 4,1.5 6,37 2,35.5 56,-70 31.5,38.5 -24.5,108.5 81,142.5 81,142.5 l -185.5,375.5"
       id="path4285"
       inkscape:connector-curvature="0" />
  </g>
</svg>
